<mxfile host="app.diagrams.net" modified="2020-11-21T18:26:54.465Z" agent="5.0 (Windows NT 10.0; Win64; x64) AppleWebKit/537.36 (KHTML, like Gecko) Chrome/87.0.4280.66 Safari/537.36" etag="0YFFV1m4xROO5cP0Xh6K" version="13.9.1" type="github">
  <diagram id="2XYw5rfrzcdDfsoRY1aY" name="Page-1">
    <mxGraphModel dx="1748" dy="733" grid="1" gridSize="10" guides="1" tooltips="1" connect="1" arrows="1" fold="1" page="1" pageScale="1" pageWidth="827" pageHeight="1169" math="0" shadow="0">
      <root>
        <mxCell id="0" />
        <mxCell id="1" parent="0" />
        <mxCell id="bIGdx2mvvDFSyfbHBPX8-2" value="Вход" style="strokeWidth=2;html=1;shape=mxgraph.flowchart.terminator;whiteSpace=wrap;" parent="1" vertex="1">
          <mxGeometry x="231" y="5" width="100" height="60" as="geometry" />
        </mxCell>
        <mxCell id="bIGdx2mvvDFSyfbHBPX8-59" value="Выход" style="strokeWidth=2;html=1;shape=mxgraph.flowchart.terminator;whiteSpace=wrap;" parent="1" vertex="1">
          <mxGeometry x="620" y="782.5" width="100" height="60" as="geometry" />
        </mxCell>
        <mxCell id="gcUCHksnC8rrGLkKe8yG-10" style="edgeStyle=orthogonalEdgeStyle;rounded=0;orthogonalLoop=1;jettySize=auto;html=1;entryX=0.5;entryY=0;entryDx=0;entryDy=0;endArrow=openThin;endFill=0;" parent="1" source="Si78nq0MEke1Vb-z9np_-14" target="pRmrsL6-HdyroAubP1yS-8" edge="1">
          <mxGeometry relative="1" as="geometry">
            <mxPoint x="290.5235721931185" y="615.0045691453081" as="targetPoint" />
          </mxGeometry>
        </mxCell>
        <mxCell id="Si78nq0MEke1Vb-z9np_-14" value="str[i] = &#39;&amp;nbsp; &#39;&lt;br&gt;j = rand() %3&amp;nbsp; + 3&lt;br&gt;q = 0" style="rounded=0;whiteSpace=wrap;html=1;" parent="1" vertex="1">
          <mxGeometry x="325" y="475" width="110" height="50" as="geometry" />
        </mxCell>
        <mxCell id="6ItXaO5hQTMBj_1F8REH-23" style="edgeStyle=orthogonalEdgeStyle;rounded=0;orthogonalLoop=1;jettySize=auto;html=1;exitX=0.5;exitY=1;exitDx=0;exitDy=0;entryX=0;entryY=0.5;entryDx=0;entryDy=0;" parent="1" target="6ItXaO5hQTMBj_1F8REH-21" edge="1">
          <mxGeometry relative="1" as="geometry">
            <mxPoint x="275" y="412" as="sourcePoint" />
          </mxGeometry>
        </mxCell>
        <mxCell id="gcUCHksnC8rrGLkKe8yG-12" style="edgeStyle=orthogonalEdgeStyle;rounded=0;orthogonalLoop=1;jettySize=auto;html=1;exitX=0.5;exitY=1;exitDx=0;exitDy=0;endArrow=openThin;endFill=0;" parent="1" source="6ItXaO5hQTMBj_1F8REH-21" edge="1">
          <mxGeometry relative="1" as="geometry">
            <mxPoint x="290" y="590" as="targetPoint" />
            <Array as="points">
              <mxPoint x="190" y="445" />
              <mxPoint x="190" y="590" />
            </Array>
          </mxGeometry>
        </mxCell>
        <mxCell id="pRmrsL6-HdyroAubP1yS-43" style="edgeStyle=orthogonalEdgeStyle;rounded=0;orthogonalLoop=1;jettySize=auto;html=1;entryX=0.5;entryY=0;entryDx=0;entryDy=0;endArrow=openThin;endFill=0;" parent="1" source="6ItXaO5hQTMBj_1F8REH-21" target="Si78nq0MEke1Vb-z9np_-14" edge="1">
          <mxGeometry relative="1" as="geometry" />
        </mxCell>
        <mxCell id="6ItXaO5hQTMBj_1F8REH-21" value="q = (j + 1)" style="rhombus;whiteSpace=wrap;html=1;direction=south;" parent="1" vertex="1">
          <mxGeometry x="238" y="400" width="86" height="90" as="geometry" />
        </mxCell>
        <mxCell id="6ItXaO5hQTMBj_1F8REH-28" value="Нет" style="text;html=1;strokeColor=none;fillColor=none;align=center;verticalAlign=middle;whiteSpace=wrap;rounded=0;" parent="1" vertex="1">
          <mxGeometry x="192" y="420" width="40" height="20" as="geometry" />
        </mxCell>
        <mxCell id="6ItXaO5hQTMBj_1F8REH-29" value="Да" style="text;html=1;strokeColor=none;fillColor=none;align=center;verticalAlign=middle;whiteSpace=wrap;rounded=0;" parent="1" vertex="1">
          <mxGeometry x="350" y="420" width="40" height="20" as="geometry" />
        </mxCell>
        <mxCell id="6ItXaO5hQTMBj_1F8REH-35" value="1" style="ellipse;whiteSpace=wrap;html=1;aspect=fixed;" parent="1" vertex="1">
          <mxGeometry x="255" y="870" width="70" height="70" as="geometry" />
        </mxCell>
        <mxCell id="pRmrsL6-HdyroAubP1yS-12" style="edgeStyle=orthogonalEdgeStyle;rounded=0;orthogonalLoop=1;jettySize=auto;html=1;endArrow=openThin;endFill=0;" parent="1" source="V2gZpasj75cv8ze_Mce1-23" edge="1">
          <mxGeometry relative="1" as="geometry">
            <mxPoint x="291.1428571428571" y="870" as="targetPoint" />
          </mxGeometry>
        </mxCell>
        <mxCell id="V2gZpasj75cv8ze_Mce1-23" value="Вывод: str" style="shape=parallelogram;perimeter=parallelogramPerimeter;whiteSpace=wrap;html=1;fixedSize=1;" parent="1" vertex="1">
          <mxGeometry x="231" y="782.5" width="120" height="60" as="geometry" />
        </mxCell>
        <mxCell id="gcUCHksnC8rrGLkKe8yG-8" style="edgeStyle=orthogonalEdgeStyle;rounded=0;orthogonalLoop=1;jettySize=auto;html=1;entryX=0;entryY=0.5;entryDx=0;entryDy=0;endArrow=openThin;endFill=0;" parent="1" source="gcUCHksnC8rrGLkKe8yG-6" target="6ItXaO5hQTMBj_1F8REH-21" edge="1">
          <mxGeometry relative="1" as="geometry" />
        </mxCell>
        <mxCell id="gcUCHksnC8rrGLkKe8yG-6" value="str[i] = rand()%2&lt;br&gt;q = q + 1" style="rounded=0;whiteSpace=wrap;html=1;" parent="1" vertex="1">
          <mxGeometry x="226" y="315" width="110" height="50" as="geometry" />
        </mxCell>
        <mxCell id="gcUCHksnC8rrGLkKe8yG-14" style="edgeStyle=orthogonalEdgeStyle;rounded=0;orthogonalLoop=1;jettySize=auto;html=1;exitX=0.5;exitY=1;exitDx=0;exitDy=0;entryX=0.5;entryY=0;entryDx=0;entryDy=0;endArrow=openThin;endFill=0;" parent="1" source="gcUCHksnC8rrGLkKe8yG-13" target="V2gZpasj75cv8ze_Mce1-23" edge="1">
          <mxGeometry relative="1" as="geometry" />
        </mxCell>
        <mxCell id="gcUCHksnC8rrGLkKe8yG-13" value="str[size-1] = 0&lt;br&gt;i = 0&lt;br&gt;k = 2" style="rounded=0;whiteSpace=wrap;html=1;" parent="1" vertex="1">
          <mxGeometry x="236" y="702.5" width="110" height="50" as="geometry" />
        </mxCell>
        <mxCell id="pRmrsL6-HdyroAubP1yS-4" style="edgeStyle=orthogonalEdgeStyle;rounded=0;orthogonalLoop=1;jettySize=auto;html=1;entryX=0.5;entryY=0;entryDx=0;entryDy=0;endArrow=openThin;endFill=0;" parent="1" source="pRmrsL6-HdyroAubP1yS-1" target="gcUCHksnC8rrGLkKe8yG-6" edge="1">
          <mxGeometry relative="1" as="geometry" />
        </mxCell>
        <mxCell id="pRmrsL6-HdyroAubP1yS-1" value="i &amp;lt; size - 1" style="shape=hexagon;perimeter=hexagonPerimeter2;whiteSpace=wrap;html=1;fixedSize=1;" parent="1" vertex="1">
          <mxGeometry x="221" y="220" width="120" height="70" as="geometry" />
        </mxCell>
        <mxCell id="pRmrsL6-HdyroAubP1yS-8" value="i = i + 1" style="rounded=0;whiteSpace=wrap;html=1;" parent="1" vertex="1">
          <mxGeometry x="235" y="610" width="110" height="50" as="geometry" />
        </mxCell>
      </root>
    </mxGraphModel>
  </diagram>
</mxfile>
